<svg xmlns="http://www.w3.org/2000/svg"><symbol id="facebook-th" viewBox="0 0 49.652 49.652"><path d="M24.826 0C11.137 0 0 11.137 0 24.826c0 13.688 11.137 24.826 24.826 24.826 13.688 0 24.826-11.138 24.826-24.826C49.652 11.137 38.516 0 24.826 0zM31 25.7h-4.039v14.396h-5.985V25.7h-2.845v-5.088h2.845v-3.291c0-2.357 1.12-6.04 6.04-6.04l4.435.017v4.939h-3.219c-.524 0-1.269.262-1.269 1.386v2.99h4.56L31 25.7z"/></symbol><symbol id="icon-basket" viewBox="0 0 64 64"><path fill="none" d="M44 18h10v45H10V18h10z"/><path fill="none" d="M22 24V11c0-5.523 4.477-10 10-10s10 4.477 10 10v13"/></symbol><symbol id="icon-instagramm" viewBox="0 0 100 100"><path d="M50.3 29c-11.6 0-21.1 9.5-21.1 21.1s9.5 21.1 21.1 21.1c11.6 0 21-9.5 21-21.1S61.8 29 50.3 29zm0 37.2c-8.9 0-16.1-7.2-16.1-16.1 0-8.9 7.2-16.1 16.1-16.1 8.8 0 16 7.2 16 16.1 0 8.9-7.2 16.1-16 16.1zM73.8 17.1c-2.2 0-4.2.8-5.7 2.3-1.5 1.5-2.3 3.5-2.3 5.7s.8 4.2 2.3 5.7c1.5 1.5 3.5 2.3 5.7 2.3s4.2-.8 5.7-2.3c1.4-1.4 2.3-3.4 2.4-5.6v-.1c0-2.1-.9-4.1-2.3-5.5-1.5-1.6-3.6-2.5-5.8-2.5zm2.1 10.1c-1.1 1.1-3.2 1.1-4.3 0-.6-.6-.9-1.3-.9-2.1s.3-1.6.9-2.1c.6-.6 1.3-.9 2.1-.9s1.6.3 2.2.9c.5.5.9 1.3.9 2 0 .9-.3 1.7-.9 2.2z"/><path d="M67.8 7H32.7C18.6 7 7.2 18.4 7.2 32.5v35.2c0 14.1 11.4 25.5 25.5 25.5h35.2c14.1 0 25.5-11.4 25.5-25.5V32.5C93.3 18.4 81.9 7 67.8 7zm20.5 60.7c0 11.3-9.2 20.5-20.5 20.5H32.7c-11.3 0-20.5-9.2-20.5-20.5V32.5c0-11.3 9.2-20.5 20.5-20.5h35.2c11.3 0 20.5 9.2 20.5 20.5v35.2z"/></symbol><symbol id="icon-location" viewBox="0 0 10.134 15.626"><path d="M7.873.853a5.043 5.043 0 0 0-5.612 0A5.03 5.03 0 0 0 .626 7.484l4.441 8.142 4.441-8.142A5.03 5.03 0 0 0 7.873.853zm.758 6.153l-3.563 6.533-3.564-6.533a4.036 4.036 0 0 1 1.312-5.321C3.5 1.229 4.283 1 5.067 1s1.567.228 2.251.684a4.038 4.038 0 0 1 1.313 5.322z"/><path d="M5.067 2.083c-1.378 0-2.5 1.122-2.5 2.5s1.122 2.5 2.5 2.5 2.5-1.122 2.5-2.5-1.121-2.5-2.5-2.5zm0 4c-.827 0-1.5-.673-1.5-1.5s.673-1.5 1.5-1.5 1.5.673 1.5 1.5-.673 1.5-1.5 1.5z"/></symbol><symbol id="icon-mail" viewBox="0 0 24 24"><path d="M3.847 17.86c.197.096.419.15.653.15h15c.234 0 .456-.054.653-.15l-5.908-5.56-1.927 1.586a.5.5 0 0 1-.636 0l-1.927-1.587-5.908 5.561zm-.704-.71a.509.509 0 0 1 .014-.014l5.82-5.478-5.795-4.772a.506.506 0 0 1-.036-.033A1.494 1.494 0 0 0 3 7.5v9.01c0 .229.051.446.143.64zm17.714 0c.092-.194.143-.411.143-.64V7.5c0-.232-.052-.45-.146-.647a.506.506 0 0 1-.036.033l-5.795 4.772 5.82 5.478.014.014zm-.713-11.005A1.494 1.494 0 0 0 19.5 6h-15c-.23 0-.45.052-.644.145L12 12.852l8.144-6.707zM4.5 5h15A2.5 2.5 0 0 1 22 7.5v9.01a2.5 2.5 0 0 1-2.5 2.5h-15a2.5 2.5 0 0 1-2.5-2.5V7.5A2.5 2.5 0 0 1 4.5 5z"/></symbol><symbol id="icon-tg" viewBox="0 0 256 256"><path d="M229.951 33.252a13.965 13.965 0 0 0-14.254-2.422L31.14 103.335a14 14 0 0 0 2.374 26.759L82 139.79v60.193a13.994 13.994 0 0 0 23.9 9.899l27.269-27.27 40.785 35.892a13.884 13.884 0 0 0 9.202 3.502 14.145 14.145 0 0 0 4.343-.689 13.884 13.884 0 0 0 9.35-10.197l37.613-164.133a13.967 13.967 0 0 0-4.51-13.736zm-195.684 83.29a1.854 1.854 0 0 1 1.26-2.037l154.429-60.669-103.347 74.639-50.742-10.149a1.854 1.854 0 0 1-1.6-1.784zm63.147 84.856A2 2 0 0 1 94 199.984v-51.84l30.143 26.526zm87.738 7.042a2 2 0 0 1-3.271 1.056l-84.274-74.161 124.984-90.266z"/></symbol><symbol id="icon-whatsapp" viewBox="0 0 90 90"><path d="M90 43.841c0 24.213-19.779 43.841-44.182 43.841a44.256 44.256 0 0 1-21.357-5.455L0 90l7.975-23.522a43.38 43.38 0 0 1-6.34-22.637C1.635 19.628 21.416 0 45.818 0 70.223 0 90 19.628 90 43.841zM45.818 6.982c-20.484 0-37.146 16.535-37.146 36.859 0 8.065 2.629 15.534 7.076 21.61L11.107 79.14l14.275-4.537A37.122 37.122 0 0 0 45.819 80.7c20.481 0 37.146-16.533 37.146-36.857S66.301 6.982 45.818 6.982zm22.311 46.956c-.273-.447-.994-.717-2.076-1.254-1.084-.537-6.41-3.138-7.4-3.495-.993-.358-1.717-.538-2.438.537-.721 1.076-2.797 3.495-3.43 4.212-.632.719-1.263.809-2.347.271-1.082-.537-4.571-1.673-8.708-5.333-3.219-2.848-5.393-6.364-6.025-7.441-.631-1.075-.066-1.656.475-2.191.488-.482 1.084-1.255 1.625-1.882.543-.628.723-1.075 1.082-1.793.363-.717.182-1.344-.09-1.883-.27-.537-2.438-5.825-3.34-7.977-.902-2.15-1.803-1.792-2.436-1.792-.631 0-1.354-.09-2.076-.09s-1.896.269-2.889 1.344c-.992 1.076-3.789 3.676-3.789 8.963 0 5.288 3.879 10.397 4.422 11.113.541.716 7.49 11.92 18.5 16.223C58.2 65.771 58.2 64.336 60.186 64.156c1.984-.179 6.406-2.599 7.312-5.107.9-2.512.9-4.663.631-5.111z"/></symbol><symbol id="instagram-th" viewBox="0 0 89.758 89.758"><path d="M58.255 23.88H31.503c-4.27 0-7.744 3.474-7.744 7.744v26.752c0 4.27 3.474 7.745 7.744 7.745h26.752c4.27 0 7.745-3.474 7.745-7.745V31.624c0-4.27-3.474-7.744-7.745-7.744zM44.879 58.906c-7.667 0-13.905-6.238-13.905-13.906 0-7.667 6.238-13.905 13.905-13.905 7.668 0 13.906 6.238 13.906 13.905 0 7.667-6.239 13.906-13.906 13.906zM59.232 33.97a3.294 3.294 0 0 1-3.291-3.29 3.294 3.294 0 0 1 3.291-3.29 3.294 3.294 0 0 1 3.29 3.29 3.294 3.294 0 0 1-3.29 3.29z"/><path d="M44.879 36.971c-4.426 0-8.03 3.602-8.03 8.028 0 4.428 3.604 8.031 8.03 8.031 4.428 0 8.029-3.603 8.029-8.031 0-4.425-3.602-8.028-8.029-8.028z"/><path d="M44.879 0C20.094 0 0 20.094 0 44.879c0 24.785 20.094 44.879 44.879 44.879 24.785 0 44.879-20.094 44.879-44.879C89.758 20.094 69.664 0 44.879 0zm26.996 58.376c0 7.511-6.109 13.62-13.62 13.62H31.503c-7.51 0-13.62-6.109-13.62-13.62V31.624c0-7.51 6.11-13.62 13.62-13.62h26.752c7.511 0 13.62 6.11 13.62 13.62v26.752z"/></symbol><symbol id="vk-th" viewBox="0 0 97.75 97.75"><path d="M48.875 0C21.883 0 0 21.882 0 48.875S21.883 97.75 48.875 97.75 97.75 75.868 97.75 48.875 75.867 0 48.875 0zm24.792 54.161c2.278 2.225 4.688 4.319 6.733 6.774.906 1.086 1.76 2.209 2.41 3.472.928 1.801.09 3.776-1.522 3.883l-10.013-.002c-2.586.214-4.644-.829-6.379-2.597-1.385-1.409-2.67-2.914-4.004-4.371-.545-.598-1.119-1.161-1.803-1.604-1.365-.888-2.551-.616-3.333.81-.797 1.451-.979 3.059-1.055 4.674-.109 2.361-.821 2.978-3.19 3.089-5.062.237-9.865-.531-14.329-3.083-3.938-2.251-6.986-5.428-9.642-9.025-5.172-7.012-9.133-14.708-12.692-22.625-.801-1.783-.215-2.737 1.752-2.774 3.268-.063 6.536-.055 9.804-.003 1.33.021 2.21.782 2.721 2.037 1.766 4.345 3.931 8.479 6.644 12.313.723 1.021 1.461 2.039 2.512 2.76 1.16.796 2.044.533 2.591-.762.35-.823.501-1.703.577-2.585.26-3.021.291-6.041-.159-9.05-.28-1.883-1.339-3.099-3.216-3.455-.956-.181-.816-.535-.351-1.081.807-.944 1.563-1.528 3.074-1.528l11.313-.002c1.783.35 2.183 1.15 2.425 2.946l.01 12.572c-.021.695.349 2.755 1.597 3.21 1 .33 1.66-.472 2.258-1.105 2.713-2.879 4.646-6.277 6.377-9.794.764-1.551 1.423-3.156 2.063-4.764.476-1.189 1.216-1.774 2.558-1.754l10.894.013c.321 0 .647.003.965.058 1.836.314 2.339 1.104 1.771 2.895-.894 2.814-2.631 5.158-4.329 7.508-1.82 2.516-3.761 4.944-5.563 7.471-1.656 2.31-1.525 3.473.531 5.479z"/></symbol></svg>