<?xml version="1.0" encoding="utf-8"?>
<!-- Generator: Adobe Illustrator 24.0.1, SVG Export Plug-In . SVG Version: 6.00 Build 0)  -->
<svg version="1.1" id="Слой_1" xmlns:xodm="http://www.corel.com/coreldraw/odm/2003"
	 xmlns="http://www.w3.org/2000/svg" xmlns:xlink="http://www.w3.org/1999/xlink" x="0px" y="0px" viewBox="0 0 919.1 215.2"
	 style="enable-background:new 0 0 919.1 215.2;" xml:space="preserve">
<style type="text/css">
	.st0{fill:#1A1A1A;}
</style>
<g id="Слой_x0020_1">
	<path class="st0" d="M65.9,95.6c7.9-6.4,14.4-12.4,19.4-17.9c8.4-9.2,12.7-20.2,12.7-33.1c0-10-2.7-18-8.2-23.8
		C84.4,14.9,77.3,12,68.4,12C61,12,55.2,14.4,51,19.3c-4.2,4.9-6.2,12-6.2,21.5C44.8,56.2,51.8,74.5,65.9,95.6L65.9,95.6z
		 M128.7,192.8c-16.9,14.9-39.4,22.4-67.5,22.4c-20.3,0-35.6-4.3-45.7-12.9c-10.2-8.6-15.2-19.2-15.2-31.8c0-12,4-22.4,12-31.1
		c7.4-8.1,18.3-17.3,32.5-27.7c-6.6-8.9-11.8-17.2-15.4-24.9c-5.2-11.2-7.7-21.5-7.7-30.9c0-10.3,2.7-19.4,8.2-27.3
		c5.4-7.9,12.7-14,21.7-18.3C60.5,6,70,3.9,80,3.9c10.6,0,20,2.5,28.1,7.5c8.2,5,12.2,13.8,12.2,26.4c0,8.9-2.1,16.8-6.4,23.6
		c-4.3,6.9-9.5,12.8-15.7,17.8c-6.2,5-14.5,11-25.1,17.8c-1.5,1-2.9,1.9-4.2,2.9c13.8,19.7,31.4,38.6,52.8,56.8
		c5.7,4.8,11.3,9.3,16.9,13.5c1.5-2.1,2.8-4.3,4.1-6.6c6.6-11.7,9.9-23.9,9.9-36.5c0-2.6-0.2-5-0.6-7.3c2.3,1.6,4.7,3.1,7.2,4.3
		c3.5,1.7,7.1,3.1,10.7,4.1c-5.7,16.7-14,32.3-25.1,46.5c9.4,6.6,18.7,12.3,27.9,16.9c16.6,8.4,29.2,12.8,37.8,13.1
		c0.9,0,1.3,0.9,1.3,2.6c0,1.7-0.4,2.6-1.3,2.6h-44.2c-6.3,0-15.4-3.5-27.3-10.5C135.7,197.5,132.2,195.3,128.7,192.8L128.7,192.8z
		 M121.9,187.9c-7.2-5.4-14.8-11.9-23-19.1c-13.7-12.1-27.3-25.6-40.8-40.8c-3.8-4.2-7.2-8.4-10.4-12.4
		c-6.3,5.1-11.5,11.2-15.8,18.2c-4.3,7-6.4,15-6.4,23.8c0,13.7,4.9,24.8,14.6,33.3c9.7,8.4,22,12.7,36.9,12.7
		c14.3,0,27.2-3.7,38.7-11.2C117.8,191,119.9,189.5,121.9,187.9z M908.7,17.9c-0.1,0-0.1-0.1-0.1-0.2c0-0.2,0-0.2,0.1-0.2
		c1,0,1.8-0.1,2.3-0.2c0.5-0.1,0.8-0.4,1-0.8c0.2-0.4,0.3-0.9,0.3-1.7v-7c0-0.9-0.1-1.6-0.2-1.9c-0.2-0.4-0.5-0.5-0.9-0.5
		c-0.4,0-1.3,0.3-2.6,0.8h0c-0.1,0-0.1-0.1-0.2-0.2c-0.1-0.1,0-0.2,0.1-0.2l6.7-3.2c0,0,0.1,0,0.1,0c0.1,0,0.1,0,0.2,0.1
		c0.1,0.1,0.1,0.1,0.1,0.2v12c0,0.8,0.1,1.4,0.2,1.8c0.2,0.4,0.5,0.6,1,0.7s1.3,0.2,2.3,0.2c0.1,0,0.1,0.1,0.1,0.2
		c0,0.2,0,0.2-0.1,0.2c-0.9,0-1.6,0-2.2,0l-3,0l-3,0C910.3,17.9,909.6,17.9,908.7,17.9L908.7,17.9z M898,17.7c1.3,0,2.3-0.6,3-1.8
		c0.7-1.2,1-2.9,1-5c0-2.6-0.4-4.6-1.3-5.9c-0.9-1.3-2-2-3.4-2c-1.4,0-2.4,0.6-3.1,1.9c-0.7,1.2-1.1,2.9-1.1,5
		c0,2.3,0.5,4.2,1.4,5.6C895.3,16.9,896.5,17.7,898,17.7L898,17.7z M897.6,18.4c-1.6,0-3-0.4-4.3-1.1c-1.3-0.7-2.2-1.7-2.9-2.9
		c-0.7-1.2-1.1-2.6-1.1-4.2s0.4-2.9,1.1-4.1c0.7-1.2,1.7-2.2,2.9-2.8c1.3-0.7,2.7-1,4.3-1c1.6,0,3,0.3,4.2,1
		c1.2,0.7,2.2,1.6,2.9,2.9c0.7,1.2,1,2.6,1,4.1c0,1.5-0.3,2.9-1,4.1c-0.7,1.2-1.7,2.2-2.9,2.9C900.6,18.1,899.2,18.4,897.6,18.4z
		 M879.3,17.7c1.3,0,2.3-0.6,3-1.8s1-2.9,1-5c0-2.6-0.4-4.6-1.3-5.9c-0.9-1.3-2-2-3.4-2c-1.4,0-2.4,0.6-3.1,1.9
		c-0.7,1.2-1.1,2.9-1.1,5c0,2.3,0.5,4.2,1.4,5.6C876.7,16.9,877.9,17.7,879.3,17.7L879.3,17.7z M879,18.4c-1.6,0-3-0.4-4.3-1.1
		c-1.3-0.7-2.2-1.7-2.9-2.9c-0.7-1.2-1.1-2.6-1.1-4.2s0.4-2.9,1.1-4.1c0.7-1.2,1.7-2.2,2.9-2.8c1.3-0.7,2.7-1,4.3-1
		c1.6,0,3,0.3,4.2,1c1.2,0.7,2.2,1.6,2.9,2.9c0.7,1.2,1,2.6,1,4.1c0,1.5-0.3,2.9-1,4.1c-0.7,1.2-1.7,2.2-2.9,2.9
		C881.9,18.1,880.5,18.4,879,18.4z M855.3,17c2.3-2,4-3.6,5.1-4.7c1.1-1.1,1.9-2.1,2.4-2.9c0.5-0.8,0.7-1.6,0.7-2.5
		c0-1-0.3-1.9-0.8-2.6c-0.5-0.7-1.3-1-2.2-1c-1,0-1.8,0.4-2.5,1.3c-0.7,0.8-1.3,2.1-1.8,3.8c0,0-0.1,0-0.2,0c-0.2,0-0.3-0.1-0.3-0.2
		l1.6-6.4c0-0.1,0.1-0.1,0.2-0.1c0.1,0,0.2,0,0.2,0.1c0.1,0,0.1,0.1,0.1,0.1c0,0.1,0,0.3,0,0.5c0,0.4,0.2,0.6,0.6,0.6
		c0.2,0,0.6-0.1,1.2-0.3c1.1-0.4,2.2-0.5,3-0.5c1.4,0,2.5,0.3,3.3,1c0.8,0.7,1.2,1.6,1.2,2.7c0,0.9-0.3,1.8-0.9,2.7
		c-0.6,0.9-1.3,1.7-2.1,2.4c-0.8,0.7-2,1.6-3.4,2.7l-1.4,1.1c-0.1,0.1-0.1,0.1-0.1,0.2c0,0.1,0.1,0.1,0.3,0.1c2.3,0,4.1,0,5.1-0.1
		c1.1-0.1,1.9-0.3,2.5-0.6c0.6-0.3,1-0.8,1.1-1.5c0-0.1,0.1-0.1,0.2-0.1c0.2,0,0.3,0,0.3,0.1l-0.7,4.4c0,0.1,0,0.2-0.1,0.3
		c-0.1,0.1-0.2,0.1-0.3,0.1h-12c-0.1,0-0.2-0.1-0.3-0.4C855.2,17.3,855.2,17.1,855.3,17L855.3,17z M849.9,18.3
		c-0.7,0-1.2-0.2-1.6-0.6c-0.4-0.4-0.6-0.9-0.6-1.6c0-0.6,0.2-1.1,0.6-1.5c0.4-0.4,0.9-0.5,1.6-0.5c0.7,0,1.2,0.2,1.6,0.5
		c0.4,0.4,0.5,0.9,0.5,1.5c0,0.7-0.2,1.2-0.5,1.6C851.1,18.1,850.6,18.3,849.9,18.3z M844.2,4.8c-1.6-0.3-3.2-0.5-5-0.6v9.5
		c0,1,0.3,1.8,0.8,2.2c0.5,0.5,1.2,0.7,2.1,0.7c1.1,0,2.1-0.4,3.1-1.1l0.1,0c0.1,0,0.1,0.1,0.2,0.2c0.1,0.1,0.1,0.2,0,0.3
		c-1,0.9-1.9,1.5-2.7,1.9c-0.9,0.4-1.8,0.6-2.7,0.6c-1.1,0-2.1-0.3-2.8-0.8c-0.8-0.5-1.2-1.4-1.2-2.7V6c0-0.9-0.1-1.4-0.4-1.7
		c-0.3-0.3-0.8-0.4-1.6-0.4c0,0-0.1,0-0.1-0.1c0-0.1-0.1-0.1-0.1-0.2c0-0.1,0-0.2,0.1-0.2c0-0.1,0.1-0.1,0.1-0.1
		c2.5-0.1,4-1.2,4.6-3.2c0-0.1,0.1-0.2,0.3-0.2c0.2,0,0.3,0.1,0.3,0.2v3.1c1.5,0,3.2-0.2,5.2-0.4c0.1,0,0.1,0.1,0.2,0.3
		c0.1,0.2,0.1,0.4,0.1,0.6c0,0.2,0,0.5-0.1,0.7C844.4,4.7,844.3,4.8,844.2,4.8L844.2,4.8z M823.9,4.8c0,0.8,0.3,1.5,0.8,2.1
		c0.6,0.5,1.4,1.1,2.4,1.7c0.9,0.5,1.7,1,2.2,1.3c0.5,0.3,1,0.8,1.3,1.4c0.4,0.6,0.6,1.3,0.6,2.1c0,0.9-0.2,1.7-0.7,2.5
		c-0.4,0.8-1.1,1.4-2,1.8c-0.9,0.5-1.9,0.7-3.1,0.7c-1.4,0-2.8-0.4-4-1.1c-0.2-0.2-0.2-0.3-0.2-0.5l-0.1-3.6c0-0.1,0.1-0.1,0.2-0.1
		c0.1,0,0.2,0,0.3,0.1c0.4,1.3,1.1,2.3,2,3.2c0.9,0.8,1.9,1.3,2.9,1.3c0.7,0,1.2-0.2,1.5-0.5c0.4-0.3,0.5-0.8,0.5-1.5
		c0-1-0.3-1.8-0.9-2.4c-0.6-0.6-1.4-1.2-2.5-1.7c-0.9-0.5-1.6-0.9-2.1-1.2c-0.5-0.3-0.9-0.8-1.3-1.3c-0.4-0.6-0.5-1.3-0.5-2.1
		c0-1.5,0.5-2.6,1.6-3.3c1.1-0.7,2.4-1.1,3.9-1.1c1,0,2.1,0.2,3.1,0.6c0.2,0.1,0.4,0.2,0.4,0.4c0,0.6,0,1.1,0,1.4l0,1.9
		c0,0.1-0.1,0.1-0.2,0.1c-0.2,0-0.2,0-0.2-0.1c0-0.5-0.2-1.1-0.6-1.6c-0.4-0.6-1-1-1.6-1.4s-1.3-0.5-2-0.5
		C824.5,3.1,823.9,3.7,823.9,4.8L823.9,4.8z M812.3,18.4c-1.6,0-3-0.3-4.2-1c-1.2-0.7-2-1.6-2.7-2.8c-0.6-1.2-0.9-2.4-0.9-3.7
		c0-1.5,0.4-2.9,1.2-4.2c0.8-1.3,1.8-2.3,3.2-3c1.3-0.7,2.8-1.1,4.4-1.1c1.5,0,2.7,0.3,3.6,1c0.8,0.7,1.3,1.6,1.3,2.8
		c0,0.7-0.1,1.1-0.4,1.1h-2.2l-7.4,0.1c-0.1,0.5-0.1,1.1-0.1,1.8c0,2.3,0.5,4.1,1.6,5.4c1.1,1.3,2.5,2,4.4,2c0.7,0,1.4-0.1,2.1-0.3
		c0.7-0.2,1.3-0.5,1.9-0.9l0.1,0c0.1,0,0.1,0.1,0.2,0.2c0.1,0.1,0.1,0.2,0,0.2c-0.9,0.9-1.9,1.5-2.9,1.9
		C814.5,18.2,813.4,18.4,812.3,18.4L812.3,18.4z M814.5,6.6c0-0.9-0.2-1.7-0.6-2.3c-0.4-0.7-1.1-1.1-2-1.1c-1.2,0-2.1,0.5-2.8,1.6
		c-0.4,0.5-0.6,1.2-0.8,1.9L814.5,6.6z M879.2,94l18.2-48.5c1-2.6,1.5-4.7,1.5-6.5c0-5.3-3.9-7.9-11.8-7.9c-0.4,0-0.6-0.4-0.6-1.1
		c0-0.7,0.2-1.1,0.6-1.1l6.5,0.2c3.9,0.2,7.6,0.4,11.1,0.4c2,0,4.4-0.1,7.4-0.4l6.8-0.2c0.2,0,0.4,0.4,0.4,1.1
		c0,0.7-0.1,1.1-0.4,1.1c-7.2,0-12.8,5.2-16.8,15.5l-26.5,68.4c-0.1,0.5-0.8,0.7-2,0.7c-1.2,0-1.9-0.2-2-0.7l-33.9-70.8
		c-2.5-5.2-4.6-8.6-6.5-10.4c-1.8-1.8-4.4-2.7-7.6-2.7c-0.4,0-0.6-0.4-0.6-1.1c0-0.7,0.2-1.1,0.6-1.1l7.7,0.2
		c4.2,0.2,8,0.4,11.6,0.4c3.2,0,7.1-0.1,11.8-0.4l7.9-0.2c0.2,0,0.4,0.4,0.4,1.1c0,0.7-0.1,1.1-0.4,1.1c-6.4,0-9.6,1.9-9.6,5.7
		c0,1.4,0.4,3.2,1.5,5.5L879.2,94L879.2,94z M773.7,113.3c7.9,0,14.2-3.4,18.9-10.1c4.7-6.8,7.1-16.1,7.1-28
		c0-8.2-1.3-15.7-3.9-22.3c-2.6-6.6-6.3-11.9-11.2-15.9c-4.9-3.9-10.5-5.9-17-5.9c-8.1,0-14.3,3-18.5,9.1c-4.2,6.1-6.4,15-6.4,26.6
		c0,8.7,1.3,16.6,4,23.7c2.6,7.1,6.3,12.6,11,16.7C762.4,111.3,767.7,113.3,773.7,113.3z M769.3,117.3c-8.7,0-16.5-2.1-23.3-6.2
		c-6.8-4.1-12.1-9.6-15.8-16.5c-3.7-6.9-5.6-14.4-5.6-22.5c0-9.5,2.5-17.6,7.4-24.5c4.9-6.9,11.2-12.1,18.8-15.7
		c7.6-3.6,15.4-5.3,23.2-5.3c8.7,0,16.4,2.1,23,6.4c6.6,4.2,11.8,9.7,15.4,16.5c3.6,6.8,5.4,13.9,5.4,21.4c0,8.2-2.2,15.9-6.5,23
		s-10.2,12.8-17.6,17C786.3,115.2,778.1,117.3,769.3,117.3L769.3,117.3z M670.7,117.3c-9.8,0-18.4-2.1-25.7-6.2
		c-7.3-4.1-12.9-9.6-16.7-16.3c-3.8-6.8-5.7-13.9-5.7-21.4c0-9.6,2.2-17.9,6.5-25c4.4-7.1,10.5-12.5,18.5-16.2
		c8-3.7,17.4-5.6,28.2-5.6c5.3,0,10.4,0.5,15.2,1.5c4.9,1,8.9,2.4,12.3,4.2c0.7,0.5,1.2,1,1.5,1.5s0.4,1.4,0.6,2.6l1.1,17.3
		c0,0.4-0.3,0.6-1,0.6c-0.7,0.1-1.1-0.1-1.2-0.5c-7.7-15.7-18.7-23.6-32.8-23.6c-9.5,0-16.9,3.6-22.4,10.7c-5.5,7.1-8.2,17.1-8.2,30
		c0,8.4,1.4,15.8,4.1,22.2c2.8,6.5,6.7,11.5,11.9,15c5.2,3.6,11.2,5.3,18.2,5.3c5.4,0,9.3-0.6,11.8-1.7c2.5-1.1,4.1-3.1,5-6.1
		c0.9-2.9,1.3-7.6,1.3-14c0-3.2-0.3-5.4-0.8-6.7c-0.6-1.3-1.7-2.2-3.5-2.6S684,82,679.5,82c-0.7,0-1.1-0.5-1.1-1.5
		c0-0.4,0.1-0.7,0.3-1c0.2-0.3,0.4-0.5,0.6-0.5c6.4,0.5,12.8,0.7,19.4,0.7c2.9,0,7.9-0.1,14.7-0.4c0.2,0,0.5,0.2,0.6,0.5
		s0.3,0.6,0.3,0.8c0,0.9-0.3,1.3-0.9,1.3c-2.1-0.1-3.5,0.1-4.3,0.6s-1.3,1.5-1.6,3c-0.2,1.5-0.4,4.3-0.4,8.2c0,5.5,0.2,9.4,0.5,11.6
		c0.3,2.2,0.5,3.7,0.5,4.6c0,0.7-0.1,1.2-0.4,1.4c-0.2,0.2-0.9,0.5-1.8,0.8C697.7,115.6,685.9,117.3,670.7,117.3L670.7,117.3z
		 M597.3,49.2c0-6.5-1.2-11.2-3.5-13.9c-2.3-2.8-6.3-4.1-11.8-4.1c-0.4,0-0.6-0.4-0.6-1.1c0-0.7,0.2-1.1,0.6-1.1l7.7,0.2
		c3.9,0.2,7.1,0.4,9.6,0.4c2,0,4.8-0.1,8.5-0.4l7.4-0.2c0.2,0,0.4,0.4,0.4,1.1c0,0.7-0.1,1.1-0.4,1.1c-4.9,0-8.4,1.4-10.5,4.1
		c-2.1,2.8-3.1,7.4-3.1,13.9v32.1c0,11.4-3.2,20.3-9.5,26.7c-6.3,6.4-14.8,9.6-25.5,9.6c-6.9,0-13.2-1.4-18.9-4.1
		c-5.7-2.8-10.3-6.7-13.7-11.9c-3.4-5.2-5.2-11.3-5.2-18.4V43.8c0-3.7-0.3-6.4-0.9-8.1c-0.6-1.7-1.8-2.9-3.5-3.6
		c-1.7-0.7-4.4-1-8.1-1c-0.4,0-0.6-0.4-0.6-1.1c0-0.7,0.2-1.1,0.6-1.1l8.7,0.2c4.7,0.2,8.5,0.4,11.4,0.4c3.2,0,7.2-0.1,12.2-0.4
		l8.3-0.2c0.4,0,0.6,0.4,0.6,1.1c0,0.7-0.2,1.1-0.6,1.1c-3.6,0-6.2,0.4-8,1.1c-1.8,0.7-3,2-3.6,3.8c-0.6,1.8-0.9,4.5-0.9,8.2v34.1
		c0,11.1,2.5,19.2,7.6,24.4c5,5.2,11.6,7.8,19.7,7.8c8,0,14.3-2.5,18.9-7.5c4.6-5,6.9-12.1,6.9-21.5L597.3,49.2L597.3,49.2z
		 M439,44.2c-3.2-4.7-6.1-8-8.8-10c-2.6-2-5.5-3-8.6-3c-0.2,0-0.4-0.4-0.4-1.1c0-0.7,0.1-1.1,0.4-1.1l6.8,0.2l6.6,0.4
		c3.8,0,9.3-0.1,16.4-0.4l10.5-0.2c0.4,0,0.6,0.4,0.6,1.1c0,0.7-0.2,1.1-0.6,1.1c-5.8,0-8.7,1.5-8.7,4.4c0,1.4,0.7,3.1,2,5.2
		l18.2,28.1l11.8-21.3c2-3.6,2.9-6.6,2.9-9c0-2.3-0.8-4.1-2.3-5.4c-1.5-1.3-3.7-1.9-6.5-1.9c-0.4,0-0.6-0.4-0.6-1.1
		c0-0.7,0.2-1.1,0.6-1.1l8.5,0.2c4.4,0.2,8.6,0.4,12.5,0.4c1.7,0,3.7-0.1,5.9-0.4l4.8-0.2c0.4,0,0.6,0.4,0.6,1.1
		c0,0.7-0.2,1.1-0.6,1.1c-7.6,0-14.7,5.5-21.2,16.6L475.7,73v27.2c0,3.8,0.3,6.6,1,8.3c0.7,1.7,2,2.9,4,3.5s5.1,0.9,9.4,0.9
		c0.4,0,0.6,0.4,0.6,1.1c0,0.7-0.2,1.1-0.6,1.1c-3.8,0-6.9-0.1-9.2-0.2l-13.5-0.2l-12.7,0.2c-2.5,0.1-5.8,0.2-10,0.2
		c-0.4,0-0.6-0.4-0.6-1.1c0-0.7,0.2-1.1,0.6-1.1c4.3,0,7.4-0.3,9.4-0.9s3.3-1.8,4.1-3.6c0.7-1.8,1.1-4.5,1.1-8.2V75.7L439,44.2
		L439,44.2z M357.7,32.2c-10.9,0-18.5,7.2-22.7,21.7c-0.1,0.4-0.5,0.6-1.1,0.6c-0.6,0-0.9-0.2-0.9-0.6c0.5-3.8,1-8.8,1.6-15
		c0.6-6.2,0.8-10.9,0.8-14.1c0-0.6,0.3-0.9,1-0.9c0.7,0,1,0.3,1,0.9c0,1.6,0.9,2.6,2.8,3s4.2,0.6,7,0.6c10.6,0.2,19.8,0.4,27.8,0.4
		l16-0.2c2.1-0.1,4.9-0.2,8.5-0.2c4.7,0,8.2-0.3,10.5-0.8c2.3-0.6,3.8-1.8,4.4-3.6c0.1-0.4,0.5-0.6,1.2-0.6s1,0.2,1,0.6
		c0,0.7-0.1,2.6-0.4,5.5c-0.1,3.1-0.3,6.9-0.6,11.5c-0.2,4.6-0.4,8.9-0.6,12.8c0,0.4-0.4,0.6-1.1,0.6c-0.7,0-1.1-0.2-1.1-0.6
		c-0.6-6.6-2.8-11.9-6.5-15.9c-3.7-3.9-8.4-5.9-13.9-5.9c-3.8,0-6.3,0.8-7.6,2.4c-1.2,1.6-1.8,4.7-1.8,9.2v56.4c0,3.8,0.3,6.6,1,8.3
		c0.7,1.7,2,2.9,4,3.5c2,0.6,5.1,0.9,9.4,0.9c0.4,0,0.6,0.4,0.6,1.1c0,0.7-0.2,1.1-0.6,1.1c-3.9,0-7.1-0.1-9.4-0.2l-13.5-0.2
		l-12.9,0.2c-2.3,0.1-5.6,0.2-9.8,0.2c-0.2,0-0.4-0.4-0.4-1.1c0-0.7,0.1-1.1,0.4-1.1c4.3,0,7.5-0.3,9.5-0.9c2-0.6,3.4-1.8,4.1-3.6
		c0.7-1.8,1.1-4.5,1.1-8.2V43.4c0-3.3-0.2-5.7-0.6-7.2c-0.4-1.5-1.3-2.5-2.5-3.1C362.4,32.5,360.4,32.2,357.7,32.2L357.7,32.2z
		 M277.2,42.9c0,5,1.8,9.1,5.3,12.2c3.6,3.1,8.8,6.5,15.9,10.1c5.3,2.7,9.5,5.1,12.6,7.2c3.1,2.1,5.8,4.7,8,7.9
		c2.2,3.2,3.3,6.9,3.3,11.2c0,4.8-1.4,9.2-4.1,13.1c-2.7,3.9-6.5,7-11.4,9.3c-4.9,2.3-10.5,3.4-16.8,3.4c-5.3,0-10.3-0.6-15.1-1.9
		c-4.8-1.3-8.4-2.9-10.7-4.7c-1-0.5-1.5-1.8-1.7-3.9l-1.1-19.9v-0.2c0-0.5,0.3-0.8,0.9-0.8s1,0.2,1.3,0.6c3.3,7.4,7.5,13.7,12.5,19
		c5,5.3,10.7,7.9,17,7.9c3.8,0,7.1-1.2,9.8-3.5c2.7-2.3,4.1-5.8,4.1-10.5c0-5.7-1.9-10.2-5.6-13.7c-3.7-3.5-9.2-7.2-16.5-11
		c-4.9-2.7-8.8-5.1-11.7-7.1c-2.9-2-5.3-4.5-7.4-7.5c-2-2.9-3-6.5-3-10.5c0-7.1,3-12.7,8.9-16.9c6-4.1,13.2-6.2,21.7-6.2
		c3.7,0,7.5,0.4,11.3,1.2c3.9,0.8,7.2,1.8,9.9,3c1.1,0.5,1.8,1,2.2,1.5c0.4,0.5,0.6,1.2,0.6,2l0.4,17c0,0.5-0.3,0.8-0.9,0.9
		c-0.6,0.1-1,0-1.3-0.4c-0.7-2.5-2.2-5.3-4.3-8.7c-2.2-3.3-5-6.3-8.7-8.9s-7.7-4-12.3-4c-4.3,0-7.6,1.2-9.8,3.5
		S277.2,39.2,277.2,42.9L277.2,42.9z M228.5,22.4c0-6.4-1.4-11.4-4.3-14.9c-2.9-3.6-7-5.3-12.4-5.3c-0.2,0-0.4-0.4-0.4-1.1
		c0-0.7,0.1-1.1,0.4-1.1l8.5,0.2c4.7,0.2,8.4,0.4,11.1,0.4c2.2,0,5.5-0.1,10-0.4l8.1-0.2c0.2,0,0.4,0.4,0.4,1.1
		c0,0.7-0.1,1.1-0.4,1.1c-4.8,0-8.5,1.8-11.2,5.3c-2.6,3.6-4,8.5-4,14.9V74c0,8.8-1.9,16.6-5.6,23.1c-3.7,6.6-9,11.6-15.9,15.2
		c-6.8,3.6-14.7,5.3-23.7,5.3c-9,0-17-1.8-24-5.3c-7-3.5-12.4-8.5-16.3-15.1c-3.9-6.6-5.8-14.3-5.8-23.1V14.9c0-3.7-0.4-6.4-1.1-8.1
		c-0.7-1.7-2.1-2.9-4-3.6c-1.9-0.7-4.9-1-8.9-1c-0.4,0-0.6-0.4-0.6-1.1c0-0.7,0.2-1.1,0.6-1.1l9.6,0.2c5.4,0.2,9.8,0.4,13.1,0.4
		c3.7,0,8.2-0.1,13.6-0.4l9.2-0.2c0.4,0,0.6,0.4,0.6,1.1c0,0.7-0.2,1.1-0.6,1.1c-4.1,0-7.1,0.4-9,1.1c-2,0.7-3.3,2-4,3.8
		c-0.7,1.8-1,4.5-1,8.2v52.5c0,14.6,3,25.5,9.1,32.7c6.1,7.2,14.6,10.8,25.5,10.8c10.4,0,18.6-3.2,24.5-9.7
		c5.9-6.5,8.8-15.6,8.8-27.4L228.5,22.4L228.5,22.4z M863.3,150.2c0,4.1,1.5,7.5,4.4,10c2.9,2.5,7.3,5.3,13,8.3
		c4.3,2.2,7.8,4.2,10.4,5.9s4.8,3.9,6.6,6.5c1.8,2.6,2.7,5.7,2.7,9.2c0,3.9-1.1,7.5-3.3,10.7c-2.2,3.2-5.3,5.8-9.4,7.6
		c-4,1.9-8.6,2.8-13.8,2.8c-4.3,0-8.5-0.5-12.4-1.6c-3.9-1.1-6.9-2.3-8.8-3.9c-0.8-0.4-1.3-1.5-1.4-3.2l-0.9-16.3v-0.2
		c0-0.4,0.3-0.6,0.8-0.7c0.5-0.1,0.9,0.1,1.1,0.5c2.7,6.1,6.2,11.3,10.3,15.6c4.1,4.3,8.8,6.5,13.9,6.5c3.1,0,5.8-1,8-2.9
		s3.3-4.8,3.3-8.6c0-4.6-1.5-8.4-4.6-11.3c-3.1-2.9-7.6-5.9-13.5-9c-4-2.2-7.2-4.2-9.6-5.8c-2.4-1.7-4.4-3.7-6.1-6.1
		c-1.7-2.4-2.5-5.3-2.5-8.6c0-5.9,2.4-10.5,7.3-13.9c4.9-3.4,10.8-5.1,17.8-5.1c3,0,6.1,0.3,9.3,1c3.2,0.7,5.9,1.5,8.1,2.5
		c0.9,0.4,1.5,0.8,1.8,1.2c0.3,0.4,0.5,1,0.5,1.7l0.3,13.9c0,0.4-0.3,0.7-0.8,0.8c-0.5,0.1-0.9,0-1.1-0.3c-0.6-2-1.8-4.4-3.6-7.1
		c-1.8-2.7-4.1-5.2-7.1-7.3s-6.3-3.3-10.1-3.3c-3.5,0-6.2,1-8,2.9C864.2,144.7,863.3,147.2,863.3,150.2L863.3,150.2z M774.7,150.8
		v40.4c0,5.8,0.9,9.9,2.6,12.6c1.8,2.6,4.6,3.9,8.4,3.9c0.2,0,0.3,0.3,0.3,0.9c0,0.6-0.1,0.9-0.3,0.9c-2.4,0-4.3-0.1-5.6-0.2
		l-6.8-0.2l-7,0.2c-1.4,0.1-3.4,0.2-5.9,0.2c-0.2,0-0.3-0.3-0.3-0.9c0-0.6,0.1-0.9,0.3-0.9c3.9,0,6.8-1.3,8.6-3.9
		c1.8-2.6,2.6-6.8,2.6-12.6v-43.7c-2-2-3.8-3.6-5.3-4.6c-2.3-1.6-4.6-2.4-6.8-2.4c-0.2,0-0.3-0.3-0.3-0.9c0-0.6,0.1-0.9,0.3-0.9
		l8.5,0.2c0.9,0,2.1,0,3.5-0.1c1.4-0.1,4.2-0.1,8.5-0.1c0.8,0,1.5,0.3,2,0.8c0.5,0.5,1.3,1.4,2.3,2.7l3.5,4.4l38.3,44.3V157
		c0-5.8-0.9-9.9-2.6-12.6c-1.7-2.6-4.5-3.9-8.3-3.9c-0.3,0-0.5-0.3-0.5-0.9c0-0.6,0.2-0.9,0.5-0.9l5.6,0.2c2.8,0.2,5.1,0.3,6.8,0.3
		c1.7,0,4.1-0.1,7.1-0.3l5.8-0.2c0.3,0,0.5,0.3,0.5,0.9c0,0.6-0.2,0.9-0.5,0.9c-3.9,0-6.8,1.3-8.6,3.9c-1.8,2.6-2.7,6.8-2.7,12.6
		v54.2c0,0.2-0.3,0.4-0.8,0.5c-0.5,0.1-0.9,0.1-1.1-0.2L775,151.1L774.7,150.8L774.7,150.8z M716.3,208c6.5,0,11.6-2.8,15.5-8.3
		c3.9-5.6,5.8-13.2,5.8-23c0-6.8-1.1-12.9-3.2-18.3c-2.1-5.4-5.2-9.8-9.2-13c-4-3.2-8.7-4.8-14-4.8c-6.7,0-11.7,2.5-15.2,7.5
		c-3.5,5-5.2,12.3-5.2,21.9c0,7.2,1.1,13.6,3.3,19.5c2.2,5.8,5.2,10.4,9,13.7C707,206.4,711.4,208,716.3,208L716.3,208z
		 M712.7,211.4c-7.2,0-13.5-1.7-19.1-5.1c-5.6-3.4-9.9-7.9-13-13.5c-3.1-5.7-4.6-11.8-4.6-18.5c0-7.8,2-14.5,6.1-20.1
		c4-5.7,9.2-9.9,15.4-12.9c6.3-2.9,12.6-4.4,19.1-4.4c7.2,0,13.5,1.7,18.9,5.2c5.4,3.5,9.7,8,12.6,13.5c3,5.5,4.5,11.4,4.5,17.6
		c0,6.8-1.8,13.1-5.3,18.9c-3.5,5.9-8.4,10.5-14.5,14C726.6,209.6,719.9,211.4,712.7,211.4L712.7,211.4z M629,150.2
		c0,4.1,1.5,7.5,4.4,10c2.9,2.5,7.3,5.3,13,8.3c4.3,2.2,7.8,4.2,10.4,5.9c2.6,1.7,4.8,3.9,6.6,6.5c1.8,2.6,2.7,5.7,2.7,9.2
		c0,3.9-1.1,7.5-3.3,10.7c-2.2,3.2-5.3,5.8-9.4,7.6c-4,1.9-8.6,2.8-13.8,2.8c-4.3,0-8.5-0.5-12.4-1.6c-3.9-1.1-6.9-2.3-8.8-3.9
		c-0.8-0.4-1.3-1.5-1.4-3.2l-0.9-16.3v-0.2c0-0.4,0.3-0.6,0.8-0.7c0.5-0.1,0.9,0.1,1.1,0.5c2.7,6.1,6.2,11.3,10.3,15.6
		c4.1,4.3,8.8,6.5,13.9,6.5c3.1,0,5.8-1,8-2.9s3.3-4.8,3.3-8.6c0-4.6-1.5-8.4-4.6-11.3c-3.1-2.9-7.6-5.9-13.5-9
		c-4-2.2-7.2-4.2-9.6-5.8c-2.4-1.7-4.4-3.7-6.1-6.1c-1.7-2.4-2.5-5.3-2.5-8.6c0-5.9,2.4-10.5,7.3-13.9c4.9-3.4,10.8-5.1,17.8-5.1
		c3,0,6.1,0.3,9.3,1c3.2,0.7,5.9,1.5,8.1,2.5c0.9,0.4,1.5,0.8,1.8,1.2c0.3,0.4,0.5,1,0.5,1.7l0.3,13.9c0,0.4-0.3,0.7-0.8,0.8
		c-0.5,0.1-0.9,0-1.1-0.3c-0.6-2-1.8-4.4-3.6-7.1c-1.8-2.7-4.1-5.2-7.1-7.3c-3-2.2-6.3-3.3-10.1-3.3c-3.5,0-6.2,1-8,2.9
		C629.9,144.7,629,147.2,629,150.2L629,150.2z"/>
</g>
</svg>
